<svg width="71" height="141" viewBox="0 0 71 141" fill="none" xmlns="http://www.w3.org/2000/svg">
<rect x="5.90973" y="6.63232" width="58.3838" height="126.968" rx="29.1919" stroke="#400306"/>
<rect x="0.386902" y="0.29834" width="69.4294" height="139.636" rx="34.7147" stroke="#400306" stroke-width="0.5"/>
<path d="M21.5566 27.6012L21.8366 27.3562C31.6016 28.1962 28.5216 35.3362 24.7766 32.8862C24.2866 30.9612 22.8166 28.9312 21.5566 27.6012ZM18.6516 35.5112L18.9316 35.3012C28.2416 35.8262 25.3716 42.7562 21.7666 40.4462C21.3116 38.6962 19.8766 36.7012 18.6516 35.5112ZM30.0966 32.0112L30.6216 32.1512C29.0466 36.7362 26.2466 45.1712 25.7216 47.1662C25.3716 48.3912 25.0566 49.6862 25.0916 50.5962C25.1616 52.4862 26.5966 53.7462 26.4216 56.8262C26.3516 58.5762 25.2316 59.7662 23.5516 59.7662C22.7116 59.7662 21.9066 59.2762 21.6266 57.9112C22.2566 54.2362 22.1166 50.9812 21.2416 50.4212C20.7516 50.0712 20.1216 49.9312 19.3516 49.8612V49.1612H21.0316C21.5566 49.1612 21.6966 49.1612 22.0816 48.4262C22.9216 47.0612 22.9216 47.0612 30.0966 32.0112ZM39.3016 48.9512L39.6516 48.6712C53.5466 52.8712 51.0966 61.7262 46.7566 58.9962C45.4966 55.6712 42.1016 51.5412 39.3016 48.9512ZM39.4416 34.4262V40.1662C39.4416 41.6012 39.3366 43.0362 39.1616 44.4012H42.8366V34.4262H39.4416ZM46.7916 44.2262L48.6116 41.3562C48.6116 41.3562 50.8166 43.4562 52.0066 44.8562C51.9366 45.2412 51.5516 45.4162 51.0966 45.4162H39.0216C37.9016 51.7162 34.4366 56.9662 25.7216 59.7662L25.4766 59.3812C31.6716 55.9162 34.1216 51.0512 34.9266 45.4162H27.5766L27.2966 44.4012H35.0666C35.2066 43.0362 35.2766 41.6012 35.2766 40.1662V34.4262H30.5166L30.2016 33.4112H35.2766V27.0412L40.7366 27.5662C40.6666 28.0562 40.3866 28.4412 39.4416 28.5812V33.4112H42.4866L44.4116 31.3812L48.2266 34.2862C48.0166 34.5662 47.5266 34.8462 46.7916 34.9862V44.2262ZM19.7366 114.801L19.5966 114.276C23.9016 113.191 28.6266 110.916 30.9366 109.061L34.8916 111.896C34.6116 112.211 33.9466 112.351 32.9666 112.071C29.8516 113.506 24.5666 114.556 19.7366 114.801ZM29.1166 107.731H40.4916V105.701H29.1166V107.731ZM39.8266 96.9512H31.8816C31.3916 97.5812 30.8316 98.1762 30.2016 98.7362H40.2816L40.7716 98.2462C40.4216 97.8262 40.1416 97.4062 39.8266 96.9512ZM31.8466 93.8012V95.9362H38.3216V93.8012H31.8466ZM31.8466 90.7562V92.7862H38.3216V90.7562H31.8466ZM23.0266 89.7412H27.9266V86.9412L32.8266 87.3612C32.7566 87.7462 32.5466 88.0262 31.8466 88.1662V89.7412H38.3216V86.9412L43.2566 87.3612C43.2216 87.7462 42.9766 88.0262 42.3116 88.1662V89.7412H43.5016L45.1466 87.8512L46.0216 88.4812C46.1266 87.9562 46.2316 87.3612 46.3016 86.8362H24.0766C24.0766 88.1312 23.6216 89.1112 23.0266 89.7412ZM29.1166 101.641H40.4916V99.7512H29.1166V101.641ZM29.1166 102.656V104.686H40.4916V102.656H29.1166ZM41.8916 97.1262L42.8716 97.8612C45.5316 99.0162 48.9966 99.7512 51.9366 100.066L51.9016 100.451C50.5016 100.836 49.6266 102.096 49.2766 103.916C47.5616 103.251 45.8816 102.446 44.4116 101.466V109.096C44.4116 109.376 42.4866 110.146 41.1916 110.146H40.5966C54.5966 110.881 48.7516 116.446 45.3916 114.206C43.6766 112.981 40.6666 111.441 36.3616 110.566L36.4666 110.076C37.9366 110.041 39.3016 110.076 40.4916 110.146V108.746H29.1166V109.446C29.1166 109.726 27.9266 110.601 26.0016 110.601H25.3016V101.991C23.2016 103.041 20.9266 103.881 18.6866 104.441L18.4416 103.986C21.9416 102.306 25.3016 99.6462 27.0866 96.9512H19.2466L18.9316 95.9362H27.9266V93.8012H23.6566L23.3766 92.7862H27.9266V90.7562H23.0266L22.7816 89.9162C22.5716 90.0562 22.3616 90.1962 22.1166 90.3012C21.0316 90.7212 19.5616 90.3362 19.2466 89.1112C18.9666 87.9212 19.7366 87.0812 20.7866 86.6962C21.8366 86.3462 23.0616 85.3662 23.0616 84.2462H23.5866C23.7966 84.8062 23.9366 85.3662 24.0066 85.8562H33.9816C33.8766 84.4212 32.9316 82.8462 31.8116 82.0062L32.0916 81.7962C38.0066 81.5862 38.3916 84.5962 36.9216 85.8562H46.0216L47.9466 83.8612L51.4116 87.1512C51.1316 87.4312 50.7816 87.5012 50.0816 87.5362C49.3116 88.0962 48.1216 88.7612 47.0366 89.2862C47.4216 89.5662 47.8066 89.9162 48.1566 90.1962C48.0516 90.5812 47.7366 90.7562 47.2466 90.7562H42.3116V92.7862H43.1866L44.7266 91.0012C44.7266 91.0012 46.5116 92.2612 47.5966 93.2412C47.5266 93.6262 47.1766 93.8012 46.6866 93.8012H42.3116V95.9362H45.8466L47.7016 93.8012C47.7016 93.8012 49.7666 95.2712 51.0966 96.3912C51.0266 96.7762 50.6416 96.9512 50.1516 96.9512H41.1216C41.2966 97.0562 41.5066 97.1962 41.7166 97.3012L41.8916 97.1262Z" fill="#400306"/>
</svg>
