<svg width="71" height="142" viewBox="0 0 71 142" fill="none" xmlns="http://www.w3.org/2000/svg">
<rect x="5.90973" y="7.52637" width="58.3838" height="126.968" rx="29.1919" stroke="#400306"/>
<rect x="0.386902" y="1.19238" width="69.4294" height="139.636" rx="34.7147" stroke="#400306" stroke-width="0.5"/>
<path d="M21.6966 28.0053L21.9766 27.8303C31.9866 28.4603 28.7316 36.0553 24.7766 33.4653C24.3916 31.5053 23.0266 29.3353 21.6966 28.0053ZM31.8816 39.6603L35.3816 42.5653C35.1016 42.8803 34.5766 43.0203 33.8766 42.7403C32.8616 43.5103 31.7066 44.2103 30.4116 44.7703C36.2916 47.4303 33.5266 52.2953 30.4816 50.0553C30.0616 48.3053 28.7666 46.3103 27.6116 44.7703V59.3653C27.6116 59.6103 26.2816 60.6253 24.2866 60.6253H23.5516V47.1153C21.9416 48.4453 20.1916 49.5653 18.4766 50.5103L18.1616 50.1953C22.5016 46.4503 26.4916 40.6053 28.2416 35.8453H19.0016L18.6866 34.8303H28.1366L30.4116 32.6953L34.0516 36.2653C33.7366 36.5803 33.3516 36.6503 32.5116 36.7553C31.3216 38.9253 29.6416 41.2003 27.6116 43.3703V43.8603C28.2066 44.0003 28.7316 44.1403 29.2216 44.3153C30.1666 43.1253 31.1116 41.4453 31.8816 39.6603ZM48.2266 29.8253L51.9366 33.1153C51.6566 33.4653 51.1666 33.6753 50.3266 33.8153C49.9766 50.0903 49.3816 56.2853 47.2816 58.4903C46.0216 59.8553 44.3766 60.4153 42.4166 60.4153C42.4516 59.0503 42.3116 58.1053 41.8916 57.5803C41.3666 56.8803 40.3166 56.4253 38.9516 56.0753V55.5853C40.1766 55.7253 42.0666 55.8303 42.8016 55.8303C43.4316 55.8303 43.7816 55.7253 44.1316 55.3403C45.5666 54.0103 46.0566 46.9753 46.4066 33.1153H41.8216C41.0866 47.7803 39.6866 56.0403 29.1166 60.6953L28.6966 60.2053C36.1516 55.1653 37.0616 46.2403 37.4466 33.1153H32.4066L32.0916 32.1353H45.9866L48.2266 29.8253ZM19.7366 115.695L19.5966 115.17C23.9016 114.085 28.6266 111.81 30.9366 109.955L34.8916 112.79C34.6116 113.105 33.9466 113.245 32.9666 112.965C29.8516 114.4 24.5666 115.45 19.7366 115.695ZM29.1166 108.625H40.4916V106.595H29.1166V108.625ZM39.8266 97.8453H31.8816C31.3916 98.4753 30.8316 99.0703 30.2016 99.6303H40.2816L40.7716 99.1403C40.4216 98.7203 40.1416 98.3003 39.8266 97.8453ZM31.8466 94.6953V96.8303H38.3216V94.6953H31.8466ZM31.8466 91.6503V93.6803H38.3216V91.6503H31.8466ZM23.0266 90.6353H27.9266V87.8353L32.8266 88.2553C32.7566 88.6403 32.5466 88.9203 31.8466 89.0603V90.6353H38.3216V87.8353L43.2566 88.2553C43.2216 88.6403 42.9766 88.9203 42.3116 89.0603V90.6353H43.5016L45.1466 88.7453L46.0216 89.3753C46.1266 88.8503 46.2316 88.2553 46.3016 87.7303H24.0766C24.0766 89.0253 23.6216 90.0053 23.0266 90.6353ZM29.1166 102.535H40.4916V100.645H29.1166V102.535ZM29.1166 103.55V105.58H40.4916V103.55H29.1166ZM41.8916 98.0203L42.8716 98.7553C45.5316 99.9103 48.9966 100.645 51.9366 100.96L51.9016 101.345C50.5016 101.73 49.6266 102.99 49.2766 104.81C47.5616 104.145 45.8816 103.34 44.4116 102.36V109.99C44.4116 110.27 42.4866 111.04 41.1916 111.04H40.5966C54.5966 111.775 48.7516 117.34 45.3916 115.1C43.6766 113.875 40.6666 112.335 36.3616 111.46L36.4666 110.97C37.9366 110.935 39.3016 110.97 40.4916 111.04V109.64H29.1166V110.34C29.1166 110.62 27.9266 111.495 26.0016 111.495H25.3016V102.885C23.2016 103.935 20.9266 104.775 18.6866 105.335L18.4416 104.88C21.9416 103.2 25.3016 100.54 27.0866 97.8453H19.2466L18.9316 96.8303H27.9266V94.6953H23.6566L23.3766 93.6803H27.9266V91.6503H23.0266L22.7816 90.8103C22.5716 90.9503 22.3616 91.0903 22.1166 91.1953C21.0316 91.6153 19.5616 91.2303 19.2466 90.0053C18.9666 88.8153 19.7366 87.9753 20.7866 87.5903C21.8366 87.2403 23.0616 86.2603 23.0616 85.1403H23.5866C23.7966 85.7003 23.9366 86.2603 24.0066 86.7503H33.9816C33.8766 85.3153 32.9316 83.7403 31.8116 82.9003L32.0916 82.6903C38.0066 82.4803 38.3916 85.4903 36.9216 86.7503H46.0216L47.9466 84.7553L51.4116 88.0453C51.1316 88.3253 50.7816 88.3953 50.0816 88.4303C49.3116 88.9903 48.1216 89.6553 47.0366 90.1803C47.4216 90.4603 47.8066 90.8103 48.1566 91.0903C48.0516 91.4753 47.7366 91.6503 47.2466 91.6503H42.3116V93.6803H43.1866L44.7266 91.8953C44.7266 91.8953 46.5116 93.1553 47.5966 94.1353C47.5266 94.5203 47.1766 94.6953 46.6866 94.6953H42.3116V96.8303H45.8466L47.7016 94.6953C47.7016 94.6953 49.7666 96.1653 51.0966 97.2853C51.0266 97.6703 50.6416 97.8453 50.1516 97.8453H41.1216C41.2966 97.9503 41.5066 98.0903 41.7166 98.1953L41.8916 98.0203Z" fill="#400306"/>
</svg>
